<svg width="104" height="499" viewBox="0 0 104 499" fill="none" xmlns="http://www.w3.org/2000/svg">
<rect width="68" height="499" rx="34" fill="#A00000"/>
<path d="M101 87.1304C112.029 133.912 82.5 127.816 68 119.13C53.5 110.445 38 104.803 38 87.1304C38 69.4573 52.5 61.6302 68 55.1304C83.5 48.6306 109.201 24.1591 101 87.1304Z" fill="#F0F0F0"/>
<path d="M101 286.13C112.029 332.912 82.5 326.816 68 318.13C53.5 309.445 38 303.803 38 286.13C38 268.457 52.5 260.63 68 254.13C83.5 247.631 109.201 223.159 101 286.13Z" fill="#F0F0F0"/>
<circle cx="67" cy="286" r="17" fill="#A00000"/>
<circle cx="71" cy="85" r="17" fill="#A00000"/>
</svg>
