<svg width="66" height="66" viewBox="0 0 66 66" fill="none" xmlns="http://www.w3.org/2000/svg">
<path d="M33 0C24.0446 0 22.9185 0.04125 19.3999 0.198C15.8813 0.363 13.4846 0.91575 11.385 1.7325C9.18161 2.55884 7.18633 3.85852 5.53988 5.53988C3.85852 7.18633 2.55884 9.18161 1.7325 11.385C0.91575 13.4805 0.358875 15.8812 0.198 19.3875C0.04125 22.9144 0 24.0364 0 33.0041C0 41.9636 0.04125 43.0856 0.198 46.6043C0.363 50.1188 0.91575 52.5154 1.7325 54.615C2.57812 56.7847 3.70425 58.6245 5.53988 60.4601C7.37138 62.2957 9.21113 63.426 11.3809 64.2675C13.4846 65.0843 15.8771 65.6411 19.3916 65.802C22.9144 65.9587 24.0364 66 33 66C41.9636 66 43.0815 65.9587 46.6043 65.802C50.1146 65.637 52.5195 65.0843 54.6191 64.2675C56.821 63.4406 58.8149 62.141 60.4601 60.4601C62.2957 58.6245 63.4219 56.7847 64.2675 54.615C65.0801 52.5154 65.637 50.1188 65.802 46.6043C65.9587 43.0856 66 41.9636 66 33C66 24.0364 65.9587 22.9144 65.802 19.3916C65.637 15.8813 65.0801 13.4805 64.2675 11.385C63.4412 9.18161 62.1415 7.18633 60.4601 5.53988C58.8137 3.85852 56.8184 2.55884 54.615 1.7325C52.5112 0.91575 50.1105 0.358875 46.6001 0.198C43.0774 0.04125 41.9595 0 32.9917 0H33ZM30.0424 5.94825H33.0041C41.8151 5.94825 42.8587 5.97713 46.3361 6.138C49.5536 6.28238 51.3026 6.82275 52.4659 7.27238C54.0045 7.8705 55.1059 8.58825 56.2609 9.74325C57.4159 10.8982 58.1295 11.9955 58.7276 13.5382C59.1814 14.6974 59.7176 16.4464 59.862 19.6639C60.0229 23.1413 60.0559 24.1849 60.0559 32.9917C60.0559 41.7986 60.0229 42.8464 59.862 46.3237C59.7176 49.5412 59.1773 51.2861 58.7276 52.4494C58.1948 53.8803 57.3509 55.1751 56.2567 56.2402C55.1017 57.3952 54.0045 58.1089 52.4618 58.707C51.3068 59.1608 49.5578 59.697 46.3361 59.8455C42.8587 60.0023 41.8151 60.0394 33.0041 60.0394C24.1931 60.0394 23.1454 60.0023 19.668 59.8455C16.4505 59.697 14.7056 59.1608 13.5424 58.707C12.1103 58.1759 10.8141 57.3334 9.74737 56.2402C8.65125 55.1744 7.80585 53.8781 7.27238 52.4452C6.82275 51.2861 6.28238 49.5371 6.138 46.3196C5.98125 42.8423 5.94825 41.7986 5.94825 32.9835C5.94825 24.1684 5.98125 23.133 6.138 19.6556C6.2865 16.4381 6.82275 14.6891 7.2765 13.5259C7.87463 11.9873 8.59237 10.8859 9.74737 9.73088C10.9024 8.57588 11.9996 7.86225 13.5424 7.26413C14.7056 6.81038 16.4505 6.27413 19.668 6.12563C22.7122 5.98537 23.892 5.94413 30.0424 5.94V5.94825ZM50.6179 11.4262C50.0978 11.4262 49.5829 11.5287 49.1024 11.7277C48.622 11.9267 48.1855 12.2184 47.8177 12.5861C47.45 12.9538 47.1583 13.3904 46.9593 13.8708C46.7603 14.3513 46.6579 14.8662 46.6579 15.3863C46.6579 15.9063 46.7603 16.4212 46.9593 16.9017C47.1583 17.3821 47.45 17.8187 47.8177 18.1864C48.1855 18.5541 48.622 18.8458 49.1024 19.0448C49.5829 19.2438 50.0978 19.3463 50.6179 19.3463C51.6681 19.3463 52.6754 18.929 53.418 18.1864C54.1607 17.4437 54.5779 16.4365 54.5779 15.3863C54.5779 14.336 54.1607 13.3288 53.418 12.5861C52.6754 11.8435 51.6681 11.4262 50.6179 11.4262ZM33.0041 16.0545C30.7563 16.0194 28.5239 16.4319 26.437 17.2678C24.3501 18.1038 22.4504 19.3465 20.8484 20.9237C19.2464 22.501 17.9741 24.3811 17.1057 26.4547C16.2373 28.5283 15.7901 30.754 15.7901 33.0021C15.7901 35.2502 16.2373 37.4758 17.1057 39.5494C17.9741 41.623 19.2464 43.5032 20.8484 45.0804C22.4504 46.6576 24.3501 47.9003 26.437 48.7363C28.5239 49.5722 30.7563 49.9847 33.0041 49.9496C37.4531 49.8802 41.6964 48.0641 44.818 44.8934C47.9397 41.7227 49.6893 37.4516 49.6893 33.0021C49.6893 28.5525 47.9397 24.2815 44.818 21.1107C41.6964 17.94 37.4531 16.1239 33.0041 16.0545ZM33.0041 21.9986C34.4488 21.9986 35.8794 22.2832 37.2142 22.8361C38.5489 23.3889 39.7617 24.1993 40.7833 25.2209C41.8048 26.2424 42.6152 27.4552 43.1681 28.79C43.7209 30.1247 44.0055 31.5553 44.0055 33C44.0055 34.4447 43.7209 35.8753 43.1681 37.21C42.6152 38.5448 41.8048 39.7576 40.7833 40.7791C39.7617 41.8007 38.5489 42.6111 37.2142 43.1639C35.8794 43.7168 34.4488 44.0014 33.0041 44.0014C30.0864 44.0014 27.2881 42.8423 25.225 40.7791C23.1618 38.716 22.0028 35.9177 22.0028 33C22.0028 30.0823 23.1618 27.284 25.225 25.2209C27.2881 23.1577 30.0864 21.9986 33.0041 21.9986Z" fill="white"/>
</svg>
