<svg width="81" height="81" viewBox="0 0 81 81" fill="none" xmlns="http://www.w3.org/2000/svg">
<path fill-rule="evenodd" clip-rule="evenodd" d="M62.3801 66.7913V66.7845L62.4409 66.6394L72.5625 15.6094V15.4474C72.5625 14.175 72.09 13.0646 71.0708 12.3997C70.1764 11.8159 69.147 11.7754 68.4248 11.8294C67.7526 11.8907 67.0892 12.0265 66.447 12.2344C66.1729 12.3218 65.9027 12.4209 65.637 12.5314L65.5931 12.5482L9.16315 34.6849L9.14627 34.6916C8.97339 34.7466 8.80522 34.8155 8.6434 34.8975C8.2423 35.0782 7.85728 35.2928 7.49252 35.5387C6.7669 36.0382 5.38652 37.2127 5.6194 39.0757C5.81177 40.6215 6.8749 41.6002 7.59377 42.1099C8.01714 42.4088 8.47352 42.6579 8.9539 42.8524L9.0619 42.8996L9.09565 42.9097L9.11927 42.9199L18.9945 46.2442C18.9585 46.8652 19.0226 47.4896 19.1869 48.1174L24.1313 66.879C24.4014 67.9017 24.985 68.8141 25.8003 69.488C26.6155 70.162 27.6214 70.5637 28.6766 70.6367C29.7319 70.7097 30.7835 70.4503 31.6837 69.8949C32.584 69.3396 33.2877 68.5163 33.696 67.5405L41.418 59.2852L54.6784 69.4507L54.8674 69.5317C56.0723 70.0582 57.1961 70.2236 58.2255 70.0853C59.2549 69.9435 60.0717 69.5115 60.6859 69.0221C61.3965 68.4463 61.9628 67.7124 62.3396 66.879L62.3666 66.8216L62.3768 66.8014L62.3801 66.7913ZM24.0806 46.8281C24.0259 46.6199 24.0389 46.3997 24.1178 46.1995C24.1967 45.9992 24.3374 45.8293 24.5194 45.7144L58.0028 24.4519C58.0028 24.4519 59.9738 23.2537 59.9029 24.4519C59.9029 24.4519 60.2539 24.6611 59.1975 25.6432C58.1985 26.5781 35.3329 48.654 33.0176 50.8882C32.892 51.0156 32.8023 51.174 32.7578 51.3472L29.025 65.5897L24.0806 46.8281Z" fill="white"/>
</svg>
